<?xml version="1.0" encoding="UTF-8"?>
<svg id="Camada_1" xmlns="http://www.w3.org/2000/svg" version="1.1" viewBox="0 0 820.81 328.52">
  <!-- Generator: Adobe Illustrator 30.6.0, SVG Export Plug-In . SVG Version: 2.1.4 Build 109)  -->
  <defs>
    <style>
      .st0 {
        fill: #fff;
      }

      .st1 {
        fill: #c5e237;
      }
    </style>
  </defs>
  <path class="st0" d="M409.59,182.29c-26.78,6.84-55.62-1.76-76.77-22.94-7.69-7.7-11.13-12.35-15.19-20.49-11.46-23.02-11.69-47.94-.68-70.52,6.1-12.5,20.96-27.65,32.64-33.28,13.54-6.52,22.2-8.27,40.29-8.15,13.92.1,17.44.56,25.89,3.37,29.37,9.82,49.73,32.45,55,61.12,7.45,40.59-19.17,80.13-61.18,90.88ZM350.45,324.31c-4.59,3.97-10.75,3.97-15.35.01l-2.38-2.05c-.7-.61-1.11-1.49-1.11-2.41v-110.96c0-2.88,1.25-5.62,3.44-7.5l.18-.16.89-.76c1.77-1.51,4.03-2.33,6.35-2.29l25.61.4,26.43.41c1.54.02,3.92.64,5.28,1.36l6.56,3.49c9.91,5.26,17.16,12.52,22.39,22.42,3.05,5.75,3.29,7.31,3.27,21.7-.01,14.37-.26,15.94-3.31,21.7-6.34,11.94-22.7,24.13-32.42,24.16-2.26.01-3.34.57-3.01,1.56.83,2.58,18.11,10.85,22.65,10.85,10.15,0,14.95,11.82,7.43,18.29-3.26,2.81-4.35,3.04-12.08,2.48-6.45-.46-10.64-1.67-17.42-5.06-10.41-5.19-25.24-17.3-32.42-26.47-2.78-3.52-5.6-6.45-6.31-6.51-.82-.05-1.26,5.73-1.24,16.13l.03,14.76c0,.93-.4,1.82-1.11,2.43l-2.37,2.03ZM378.56,158.64c25.73,5.1,51.94-8.13,63.14-31.86,7.48-15.83,5.85-36.87-4-52.13-11.9-18.41-30.61-27.5-53.39-25.94-22.9,1.57-40.75,15.61-47.31,37.19-2.03,6.73-2.47,10.84-2.07,19.91.43,10.03,1.05,12.61,5.06,21.04,7.51,15.82,23.2,28.75,38.57,31.79ZM526.2,178.54c-3.38,3.38-10.18,4.24-14.48,1.82-7.02-3.93-7.14-4.87-7.15-56.01v-40.94c-.01-3.9-.87-7.76-2.51-11.3l-.67-1.45c-5.6-12.05-12.68-17.3-24.57-18.21-4.17-.32-9.12-1.18-11.03-1.9-4.61-1.75-7.51-7.5-6.5-12.91,1.44-7.7,10.6-10.67,24.49-7.95,10.45,2.06,18.94,6.51,26.57,13.94l4.01,3.91c1.29,1.25,3.35,1.2,4.57-.12l2.88-3.12c12.66-13.72,35.43-19.94,55.64-15.16,22.19,5.23,39.69,22.9,43.72,44.15.67,3.52,1.21,27.57,1.21,53.46v45.74c0,.85-.34,2.63-.94,3.23l-2.17,3.42c-3.86,3.86-6.17,3.33-10.19,2.69-2.49-.41-5.69-1.88-7.09-3.29-2.48-2.48-2.58-4.15-3.17-53.05-.61-49.05-.69-50.63-3.35-55.59-7.25-13.54-17.3-19.55-32.52-19.46-14.32.1-24.21,5.96-29.68,17.62l-2.97,6.33c-.19.41-.3.86-.3,1.31l-.61,49.8c-.6,48.91-.69,50.57-3.17,53.05ZM754.51,176.88l-2.04,2.29c-1.21,1.35-3.69,2.47-5.51,2.47l-44.23.15c-26.14.09-48.74-.09-50.21-.38-1.49-.3-4.15-2.01-5.94-3.79l-2.3-2.29c-.61-.6-.94-1.42-.94-2.28l.66-95.06c.03-4.41,1.03-8.76,2.93-12.74l1.72-3.59c8.07-16.9,21.23-27.83,38.97-32.42,5.81-1.49,14.01-1.96,34.47-1.96h25.53c.84,0,1.65.33,2.25.93l2.12,2.11c4.5,4.51,4.24,12.08-.58,16.9l-2.7,2.69c-.6.6-1.41.93-2.25.93h-24.58c-28.71,0-33.5.87-41.62,7.56-2.52,2.08-5.96,6.15-7.66,9.04-2.88,4.9-5.74,18.29-4.64,21.61.36,1.07,8.58,1.46,30.62,1.46,34.83,0,35.12.09,36.26,10.22.6,5.22.29,6.15-3.12,9.56l-2.85,2.85c-.6.6-1.41.93-2.25.93h-55.19c-1.76,0-3.19,1.43-3.19,3.19v35.78c0,1.76,1.43,3.19,3.19,3.19h41.97c31.34,0,39.72-.01,42.33,3.87,1.07,1.57,1.17,3.78,1.46,6.88.11,6.01-1.06,6.73-2.66,9.92ZM465.15,323.97c-4.8,4.6-10.44,4.49-15.22-.29l-2.69-2.7c-.6-.6-.93-1.41-.93-2.25v-37.76c0-41.24.67-48.02,5.68-57.96,3.5-6.96,12.72-16.43,19.23-19.75,15.65-7.97,37.45-7.97,53.11.02,7.34,3.73,16.75,13.65,21.36,22.47l2.16,4.15c1.09,2.09,1.64,5.97,1.79,7.79l.57,39.7.37,42.34c0,.85-.33,1.68-.93,2.28l-2.18,2.18c-4.35,4.35-10.39,4.2-14.77-.36l-2.45-2.56c-.57-.59-.88-1.38-.88-2.2v-44.37c0-1.76-1.43-3.19-3.19-3.19h-54.38c-1.76,0-3.19,1.43-3.19,3.19v44.59c0,.87-.36,1.7-.98,2.3l-2.49,2.38ZM717.09,323.49l-2.26,2.68c-.61.72-1.5,1.14-2.44,1.14h-17.68c-19.13,0-19.17,0-22.2-3.29-5.91-6.38-3.03-15.36,5.64-17.49l1.94-.48c1.41-.35,2.41-1.61,2.42-3.07l.3-40.52.31-39.8c.01-1.77-1.42-3.21-3.19-3.21h0c-4.5,0-10.46-6.24-10.46-10.92,0-2.02,1.07-5,2.37-6.61,2.28-2.83,3.07-2.94,22.29-3.32,19.87-.4,19.92-.38,23.05,2.74,4.35,4.35,4.17,9.83-.5,14.49-2.44,2.43-4.88,3.62-7.44,3.62h-.63c-1.76,0-3.19,1.43-3.19,3.19v80.49c0,1.6,1.18,2.95,2.76,3.16l2.5.34c9.43,1.26,12.58,9.55,6.41,16.87ZM817.69,324.27c-3.01,3-3.32,3.04-24.49,2.95-24.06-.09-29.53-1.1-40.07-7.44-12.09-7.27-20.07-18.36-22.99-31.92-.76-3.58-1.13-21.83-.91-45.95.29-31.95.14-40.5,3.82-42.76,1.35-.82,3.21-.81,5.8-.79.41.01.84.01,1.3.01,4.35,0,6.37.67,8.36,2.79,2.54,2.7,2.63,4.04,3.01,43.8l.38,40.12c0,.58.17,1.15.48,1.65l3.29,5.31c2.32,3.76,6.06,7.5,9.81,9.82,6.03,3.73,6.22,3.76,28.06,4.38,19.35.55,22.29.91,24.59,2.98,3.77,3.42,3.55,11.07-.43,15.06ZM598.74,322.27c-6.34,3.38-9.42,4.19-17.98,4.72-10.3.64-10.34.64-14.27-3.3-3.42-3.42-3.86-4.55-3.22-8.46,1.03-6.32,3.26-8.01,12.21-9.22,9.62-1.31,17.52-5.93,22.66-13.25l.74-1.05c1.97-2.8,3.06-6.12,3.13-9.53l.51-24.09c.61-29,.66-29.43,4.07-36.36,7.03-14.32,20.08-22.11,38.69-23.09,11.33-.58,11.37-.58,14.17,2.98,3.58,4.56,2.81,11.03-1.79,15.04-2.6,2.26-4.7,2.79-11.02,2.79-8.91,0-14.22,2.74-18.99,9.82-2.47,3.67-2.83,5.79-2.89,17.33-.05,7.23-.51,20.98-1.02,30.56-.77,14.31-1.44,18.47-3.74,23.23-4.14,8.57-12.61,17.27-21.26,21.88ZM372.54,272.87c7.1,3.31,17.42,3.1,24.29-.5,6.69-3.5,13.07-12.48,14.2-19.99,1.74-11.55-5.29-25.23-15.7-30.54-4.03-2.06-7.34-2.41-22.74-2.41h-14.84c-1.76,0-3.19,1.43-3.19,3.19v13.59c0,11.29.55,18.09,1.67,20.77,2.22,5.28,10.14,13.01,16.3,15.88ZM468.86,243.12l-.28,3.91c-.13,1.86,1.35,3.44,3.21,3.42l26.75-.3,26.99-.3c1.78-.02,3.19-1.49,3.15-3.26l-.07-3.02c-.29-11.8-8.52-22.23-20.13-25.5-20.36-5.73-38.21,5.55-39.61,25.06Z"/>
  <path class="st1" d="M230.03,326.19c-10.45,2.16-18.51,2.32-115.38,2.33-100.19.01-104.29-.07-108.01-2.34C1.74,323.19-.04,318.07,0,306.97c.04-10.75,2.84-17.62,9.16-22.44,8.88-6.77,10.43-6.86,112.31-6.67,51.48.09,95.84-.25,98.56-.77,14.39-2.72,27.91-13.27,34.78-27.15,13.58-27.46,1.52-61.02-26.72-74.41l-8.06-3.82-55.79-.62c-41.58-.46-56.49-1.02-58.52-2.18-4.79-2.73-6.57-6.61-6.57-14.23s4.65-20,10.64-27.83c5.74-7.53,7.69-7.82,51.19-7.82s45.05-.21,50.77-8.68c6.12-9.09.68-23.41-11.25-29.54-5.03-2.58-7.97-3.09-20.46-3.47-8.01-.24-16.13-1.08-18.04-1.86-4.3-1.77-7.07-6.92-7.05-13.1.01-5.42,10.55-27.4,15.77-32.88,4.71-4.95,13.94-7.65,23.15-6.77,32.58,3.07,63.22,29.59,73.42,63.51,3.43,11.43,2.93,29.52-1.19,42.09-1.88,5.77-2.73,10.09-2.01,10.34.68.24,4.15,2.39,7.72,4.8,18.24,12.32,32.35,31.94,39.5,54.96,2.45,7.86,2.89,11.95,2.9,27.23.02,16.46-.26,18.86-3.48,28.52-6.51,19.55-17.38,35.97-31.84,48.1-15.7,13.17-29.52,19.94-48.87,23.93ZM734.4,14.79c-3,2.36-4.92,2.57-23,2.57-19.29,0-19.8-.06-22.78-3.04-1.67-1.67-3.04-4.22-3.04-5.64s1.36-3.97,3.04-5.64c3-2.99,3.4-3.04,24.09-3.04,23.49,0,24.94.47,24.94,8.06,0,3.01-.89,4.86-3.26,6.73Z"/>
</svg>
