<?xml version="1.0" encoding="UTF-8"?>
<svg id="Camada_1" xmlns="http://www.w3.org/2000/svg" version="1.1" viewBox="0 0 222.02 192.38">
  <!-- Generator: Adobe Illustrator 30.6.0, SVG Export Plug-In . SVG Version: 2.1.4 Build 109)  -->
  <defs>
    <style>
      .st0 {
        fill: none;
        stroke: #747474;
        stroke-miterlimit: 10;
        stroke-width: 7px;
      }

      .st1 {
        isolation: isolate;
      }
    </style>
  </defs>
  <g class="st1">
    <g class="st1">
      <path class="st0" d="M103.86,142.86c0,27.56-16.12,46.02-50.18,46.02S3.5,170.42,3.5,142.86V49.52C3.5,21.96,19.62,3.5,53.68,3.5s50.18,18.46,50.18,46.02v93.34Z"/>
      <path class="st0" d="M41.98,141.56c0,8.06,3.38,12.74,11.7,12.74s11.7-4.68,11.7-12.74V50.82c0-8.06-3.38-12.74-11.7-12.74s-11.7,4.68-11.7,12.74v90.74Z"/>
      <path class="st0" d="M156.38,129.86v12.22c0,8.58,3.64,12.22,11.96,12.22s11.96-3.64,11.96-12.22v-20.8c0-5.98-2.6-10.14-11.44-10.14h-14.3v-33.54h14.3c8.84,0,11.44-4.16,11.44-10.14v-17.16c0-8.58-3.64-12.22-11.96-12.22s-11.96,3.64-11.96,12.22v9.1h-38.22v-10.66c0-27.56,16.12-45.24,50.18-45.24s50.18,17.68,50.18,45.24v15.6c0,15.08-7.02,26.78-17.68,29.64,9.36,2.34,17.68,9.62,17.68,24.96v24.7c0,27.56-16.12,45.24-50.18,45.24s-50.18-17.68-50.18-45.24v-13.78h38.22Z"/>
    </g>
  </g>
</svg>