<?xml version="1.0" encoding="UTF-8"?>
<svg id="Camada_1" xmlns="http://www.w3.org/2000/svg" version="1.1" viewBox="0 0 222.28 192.38">
  <!-- Generator: Adobe Illustrator 30.6.0, SVG Export Plug-In . SVG Version: 2.1.4 Build 109)  -->
  <defs>
    <style>
      .st0 {
        fill: none;
        stroke: #747474;
        stroke-miterlimit: 10;
        stroke-width: 7px;
      }

      .st1 {
        isolation: isolate;
      }
    </style>
  </defs>
  <g class="st1">
    <g class="st1">
      <path class="st0" d="M103.86,142.86c0,27.56-16.12,46.02-50.18,46.02S3.5,170.42,3.5,142.86V49.52C3.5,21.96,19.62,3.5,53.68,3.5s50.18,18.46,50.18,46.02v93.34ZM41.98,141.56c0,8.06,3.38,12.74,11.7,12.74s11.7-4.68,11.7-12.74V50.82c0-8.06-3.38-12.74-11.7-12.74s-11.7,4.68-11.7,12.74v90.74Z"/>
      <path class="st0" d="M169.64,125.7c-11.18,7.28-11.7,10.14-11.7,20.02v6.76h60.06v33.8h-98.54v-42.9c0-20.02,7.54-31.72,19.5-39.52l31.98-21.32c7.28-4.94,9.36-8.06,9.36-19.5v-12.74c0-8.58-2.86-12.22-11.18-12.22s-11.18,3.64-11.18,12.22v14.56h-38.48v-16.12c0-27.56,15.6-45.24,49.66-45.24s49.66,17.68,49.66,45.24v19.24c0,17.42-6.76,29.64-19.76,38.22l-29.38,19.5Z"/>
    </g>
  </g>
</svg>